:SAMPLES-PER-SECOND 30
:FULLY-SPECIFIED
:DEGREES
437
root  -22.1528 16.5532 4.20151 102.487 -85.4847 -116.376
RightUpLeg  -39.099 -9.6812 -12.3998
RightLeg  144.749 20.7189 -12.591
RightFoot  -18.5765 1.11922 19.5357
RightToes  0.000482159 0.542163 -0.142577
Spine  30.994 -2.48173 2.74439
Spine1  -7.79186 -2.35113 3.69649
HEad  -3.42244 -15.4504 -6.56412
LeftShoulder1  0.399029 -2.21354 1.67231
LeftArm  -94.7585 -33.1696 10.3377
LeftForeArm  175.876 -76.4622 -141.542
LeftHand  -0.25398 0.0180481 5.50724
RightShoulder  0.200002 -12.8337 -12.0422
RightArm  -91.3804 44.8708 -15.1658
RightForeArm  54.0961 77.9021 57.8513
RightHand  -10.1859 22.4371 -41.0645
LeftUpLeg  -42.9161 -2.58824 8.57715
LeftLeg  150.211 -1.16929 0.253493
LeftFoot  -22.0088 -1.24885 -14.7168
LeftToes  1.06244e-005 4.65856e-005 -8.18505e-006
438
root  -22.0955 16.5074 4.20224 101.026 -85.4125 -115.263
RightUpLeg  -38.8748 -9.54176 -12.4653
RightLeg  144.949 20.517 -12.3779
RightFoot  -18.5023 1.11981 19.736
RightToes  0.000482159 0.542163 -0.142577
Spine  30.7394 -2.43662 2.90841
Spine1  -7.41188 -2.24852 3.36515
HEad  -4.01023 -16.5592 -6.12175
LeftShoulder1  0.390731 -2.0961 1.67419
LeftArm  -94.7664 -33.238 10.1397
LeftForeArm  177.319 -75.9223 -143.29
LeftHand  -0.25398 0.0180481 5.50724
RightShoulder  0.143965 -12.4092 -11.4426
RightArm  -90.2992 44.2133 -15.0278
RightForeArm  56.0916 78.2206 61.0103
RightHand  -10.3343 22.6556 -41.3088
LeftUpLeg  -42.8915 -2.73786 8.68641
LeftLeg  150.368 -1.20589 0.268924
LeftFoot  -21.8741 -1.23577 -14.7553
LeftToes  1.06244e-005 4.65856e-005 -8.18505e-006
439
root  -22.0406 16.4512 4.21312 100.31 -85.3153 -114.896
RightUpLeg  -38.7261 -9.31448 -12.5532
RightLeg  145.177 20.2896 -12.1384
RightFoot  -18.3194 1.08753 19.7097
RightToes  0.000482159 0.542163 -0.142577
Spine  30.4562 -2.36158 3.17949
Spine1  -6.83418 -2.07806 2.90749
HEad  -6.44742 -17.3487 -4.87336
LeftShoulder1  0.412904 -2.18348 1.35564
LeftArm  -94.8427 -33.1733 10.2999
LeftForeArm  178.254 -75.3067 -145.006
LeftHand  -0.25398 0.0180481 5.50724
RightShoulder  0.0775412 -11.605 -10.6936
RightArm  -88.6035 43.116 -14.8172
RightForeArm  56.2932 78.3557 63.2418
RightHand  -10.9343 23.5923 -42.1826
LeftUpLeg  -42.8581 -2.84619 8.85063
LeftLeg  150.539 -1.14715 0.234123
LeftFoot  -21.7515 -1.22806 -14.8407
LeftToes  1.06244e-005 4.65856e-005 -8.18505e-006
440
root  -22.0028 16.4083 4.2297 98.8169 -85.2536 -113.702
RightUpLeg  -38.4592 -9.05929 -12.7655
RightLeg  145.386 19.8926 -11.8122
RightFoot  -18.213 1.06747 19.6734
RightToes  0.000482159 0.542163 -0.142577
Spine  30.1026 -2.25852 3.367
Spine1  -6.22445 -1.91874 2.63664
HEad  -10.2424 -17.0639 -2.92221
LeftShoulder1  0.482482 -2.58 0.59355
LeftArm  -94.5645 -33.0689 10.6705
LeftForeArm  179.136 -74.7644 -146.41
LeftHand  -0.25398 0.0180481 5.50724
RightShoulder  0.0115747 -10.5279 -9.79315
RightArm  -86.1025 42.2668 -14.7746
RightForeArm  51.0197 77.9105 60.2826
RightHand  -11.8368 24.9508 -43.4573
LeftUpLeg  -42.7824 -2.98518 8.97367
LeftLeg  150.681 -1.05504 0.183167
LeftFoot  -21.7179 -1.23042 -14.9095
LeftToes  1.06244e-005 4.65856e-005 -8.18505e-006
441
root  -21.9845 16.3924 4.25188 96.5113 -85.2275 -111.677
RightUpLeg  -37.9908 -8.75151 -13.1534
RightLeg  145.538 19.2672 -11.3821
RightFoot  -18.2109 1.08109 19.9
RightToes  0.000482159 0.542163 -0.142577
Spine  29.7039 -2.14117 3.41196
Spine1  -5.76122 -1.79787 2.612
HEad  -13.9876 -15.6558 -0.825606
LeftShoulder1  0.588719 -3.13327 -0.478663
LeftArm  -93.3701 -33.1602 10.7496
LeftForeArm  179.987 -74.386 -147.367
LeftHand  -0.25398 0.0180481 5.50724
RightShoulder  -0.0479119 -9.34076 -8.6708
RightArm  -82.5138 42.2441 -14.8236
RightForeArm  40.5575 76.5149 51.4792
RightHand  -12.5182 25.9147 -44.4216
LeftUpLeg  -42.6517 -3.19696 8.97744
LeftLeg  150.743 -0.993631 0.150204
LeftFoot  -21.6448 -1.22689 -14.9692
LeftToes  1.06244e-005 4.65856e-005 -8.18505e-006
442
root  -21.9709 16.3923 4.2802 94.5671 -85.1777 -110.137
RightUpLeg  -37.3824 -8.2583 -13.6213
RightLeg  145.645 18.4718 -10.8738
RightFoot  -18.099 1.08859 20.3367
RightToes  0.000482159 0.542163 -0.142577
Spine  29.3657 -2.01228 3.40281
Spine1  -5.47126 -1.67665 2.65628
HEad  -16.7804 -13.8618 1.02314
LeftShoulder1  0.726144 -3.69827 -1.85454
LeftArm  -91.0572 -33.5236 10.3789
LeftForeArm  -179.901 -74.1516 -147.874
LeftHand  -0.25398 0.0180481 5.50724
RightShoulder  -0.0880358 -7.94842 -7.34443
RightArm  -77.4976 42.7733 -14.4594
RightForeArm  29.2235 73.9241 40.8453
RightHand  -12.3835 25.6838 -44.2844
LeftUpLeg  -42.3608 -3.45278 8.92385
LeftLeg  150.737 -0.932384 0.118768
LeftFoot  -21.4491 -1.21052 -15.0632
LeftToes  1.06244e-005 4.65856e-005 -8.18505e-006
